<?xml version="1.0" encoding="UTF-8"?>
<svg xmlns="http://www.w3.org/2000/svg" version="1.1" viewBox="0 0 1080 700">
  <defs>
    <style>
      .cls-1, .cls-2 {
        fill: #231f20;
        fill-rule: evenodd;
      }

      .cls-2 {
        display: none;
      }
    </style>
  </defs>
  <!-- Generator: Adobe Illustrator 28.7.8, SVG Export Plug-In . SVG Version: 1.2.0 Build 200)  -->
  <g>
    <g id="Layer_1">
      <g>
        <g>
          <path class="cls-1" d="M1041.6,218.5h0c0-101.3-82.1-183.4-183.4-183.4h-332.6c-27.2,0-49.2,22-49.2,49.2v26.5c0,9.9,2,19.6,5.9,28.7l54.4,127.3c25.2,59.2,33.1,125.2-6.5,176.8l-40.9,53.3c-8.4,10.9-12.9,24.3-12.9,38v80.7c0,27.2,22,49.2,49.2,49.2h437.2c43.5,0,78.7-35.2,78.7-78.7v-6.8c0-14.2,7.9-137.2-13.2-174.9-21.1-37.7-95.8,8.6-115.4,8.6s-19.3-46.6-19.3-46.6c81.7,0,147.9-66.2,147.9-147.9ZM830.2,193.9c-1.3-41.1,32.3-74.7,73.4-73.4,37.2,1.2,67.6,31.5,68.8,68.8,1.3,41.1-32.3,74.7-73.4,73.4-37.2-1.2-67.6-31.5-68.8-68.8Z"/>
          <path class="cls-2" d="M587.2,623.3c0,23-18.6,41.6-41.6,41.6H179c-41.8,0-75.7-33.9-75.7-75.7L368.7,80.9c14.7-28.1,43.8-45.7,75.5-45.7h101.4c23,0,41.6,18.6,41.6,41.6v546.5Z"/>
        </g>
        <path class="cls-1" d="M472.3,443.6l-40.4,52.7c-8.7,11.3-13.4,25.2-13.4,39.5v87.5c0,23-18.6,41.6-41.6,41.6H112.6c-41.8,0-75.7-33.9-75.7-75.7,0,0,99.5-554,187-554h153c23,0,35.6,47.3,43.2,72.4,67.5,225.1,130.8,262,52.2,336Z"/>
      </g>
    </g>
  </g>
</svg>